<svg xmlns="http://www.w3.org/2000/svg" viewBox="0 0 512 512">
  <defs>
    <linearGradient id="grad" x1="0%" y1="0%" x2="100%" y2="100%">
      <stop offset="0%" style="stop-color:#f97316;stop-opacity:1" />
      <stop offset="100%" style="stop-color:#ea580c;stop-opacity:1" />
    </linearGradient>
  </defs>
  <rect width="512" height="512" rx="102" fill="url(#grad)"/>
  <g fill="white">
    <!-- Truck/delivery icon -->
    <path d="M380 200H340V160C340 148.954 331.046 140 320 140H120C108.954 140 100 148.954 100 160V300C100 311.046 108.954 320 120 320H140C140 348.719 163.281 372 192 372C220.719 372 244 348.719 244 320H308C308 348.719 331.281 372 360 372C388.719 372 412 348.719 412 320H420C431.046 320 440 311.046 440 300V260C440 226.863 413.137 200 380 200ZM192 348C176.536 348 164 335.464 164 320C164 304.536 176.536 292 192 292C207.464 292 220 304.536 220 320C220 335.464 207.464 348 192 348ZM360 348C344.536 348 332 335.464 332 320C332 304.536 344.536 292 360 292C375.464 292 388 304.536 388 320C388 335.464 375.464 348 360 348ZM416 296H412C403.163 270.397 379.603 252 352 252H340V224H380C399.882 224 416 240.118 416 260V296Z"/>
    <!-- Speed lines -->
    <rect x="80" y="180" width="60" height="12" rx="6" opacity="0.8"/>
    <rect x="60" y="220" width="80" height="12" rx="6" opacity="0.6"/>
    <rect x="80" y="260" width="50" height="12" rx="6" opacity="0.4"/>
  </g>
</svg>
